<svg height="512pt" viewBox="0 0 512 512" width="512pt" xmlns="http://www.w3.org/2000/svg"><path d="m423.859375 0h-335.5l167.640625 113.875zm0 0"/><path d="m442 23.945312-186 126.179688-186-126.328125v163.203125h372zm0 0"/><path d="m198 374c0 31.980469 26.019531 58 58 58s58-26.019531 58-58-26.019531-58-58-58-58 26.019531-58 58zm0 0"/><path d="m75 432c31.980469 0 58-26.019531 58-58s-26.019531-58-58-58-58 26.019531-58 58 26.019531 58 58 58zm0 0"/><path d="m379 374c0 31.980469 26.019531 58 58 58s58-26.019531 58-58-26.019531-58-58-58-58 26.019531-58 58zm0 0"/><path d="m271 287.285156v-70.285156h-30v70.285156c4.875-.84375 9.886719-1.285156 15-1.285156s10.125.441406 15 1.285156zm0 0"/><path d="m75 462c-27.285156 0-51.710938-12.484375-67.867188-32.039062-4.53125 7.992187-7.132812 17.214843-7.132812 27.039062v55h150v-55c0-9.824219-2.601562-19.046875-7.132812-27.039062-16.15625 19.554687-40.582032 32.039062-67.867188 32.039062zm0 0"/><path d="m422 287.285156c4.875-.84375 9.886719-1.285156 15-1.285156s10.125.441406 15 1.285156v-37.285156h-81v-33h-30v63h81zm0 0"/><path d="m256 462c-27.285156 0-51.710938-12.484375-67.867188-32.039062-4.53125 7.992187-7.132812 17.214843-7.132812 27.039062v55h150v-55c0-9.824219-2.601562-19.046875-7.132812-27.039062-16.15625 19.554687-40.582032 32.039062-67.867188 32.039062zm0 0"/><path d="m141 250h-81v37.285156c4.875-.84375 9.886719-1.285156 15-1.285156s10.125.441406 15 1.285156v-7.285156h81v-63h-30zm0 0"/><path d="m504.867188 429.960938c-16.15625 19.554687-40.582032 32.039062-67.867188 32.039062s-51.710938-12.484375-67.867188-32.039062c-4.53125 7.992187-7.132812 17.214843-7.132812 27.039062v55h150v-55c0-9.824219-2.601562-19.046875-7.132812-27.039062zm0 0"/></svg>